{"title":"Legend.2015.DVDSCRCAMHDRIP.CAMAUDIO.READNFO.XviD-VAiN","uid":12957645,"size":1290068227,"categoryP":"video","categoryS":"movies","magnet":"?xt=urn:btih:dff27bb667a4bbf2e287e16716e66e5e500541d7&amp;dn=Legend.2015.DVDSCRCAMHDRIP.CAMAUDIO.READNFO.XviD-VAiN&amp;tr=udp%3A%2F%2Ftracker.leechers-paradise.org%3A6969&amp;tr=udp%3A%2F%2Fzer0day.ch%3A1337&amp;tr=udp%3A%2F%2Fopen.demonii.com%3A1337&amp;tr=udp%3A%2F%2Ftracker.coppersurfer.tk%3A6969&amp;tr=udp%3A%2F%2Fexodus.desync.com%3A6969","seeders":0,"leechers":0,"uploader":"TvTeam","files":4,"time":1449805584,"description":"------------------------------------------------------------------------\r\n\r  https://www.torrenting.com\r\n\r\nSign up is OPEN - for time being. Come and have fun.\r\n\r\n------------------------------------------------------------------------[img]http://i.imgur.com/FJi0aRt.png[/img] \n\n[b]P R E S E N T S . . . .[/b] \n\nLegend.2015.DVDSCRCAMHDRIP.CAMAUDIO.READNFO.XviD-VAiN\n\niMDB........: http://www.imdb.com/title/tt3569230/\n\nPLOT........: \tThe film tells the story of the identical twin gangsters Reggie and Ronnie Kray, two of the most notorious criminals in British history, and their organised crime empire in the East End of London during the 1960s.\n\n\nT E C H N i C A L . i N F O . . .\n\nBasic Information\nFormat                      : AVI\nFormat/Info                 : Audio Video Interleave\nFile size                   : 1.19 GiB\nDuration                    : 1h 59mn\nOverall bit rate            : 1 426 Kbps\nWriting application         : VirtualDubMod 1.5.10.2 (build 2540/release)\nWriting library             : VirtualDubMod build 2540/release\n\nVideo\nID                          : 0\nFormat                      : MPEG-4 Visual\nFormat profile              : Advanced   \nFormat settings, BVOP       : 3\nFormat settings, QPel       : No\nFormat settings, GMC        : No warppoints\nFormat settings, Matrix     : Default (H.263)\nCodec ID                    : XVID\nCodec ID/Hint               : XviD\nDuration                    : 1h 59mn\nBit rate                    : 1 223 Kbps\nWidth                       : 720 pixels\nHeight                      : 320 pixels\nDisplay aspect ratio        : 2.25:1\nFrame rate                  : 29.970 fps\nColor space                 : YUV\nChroma subsampling          : 4:2:0\nBit depth                   : 8 bits\nScan type                   : Progressive\nCompression mode            : Lossy\nBits/(Pixel*Frame)          : 0.177\nStream size                 : 1.02 GiB (86%)\nWriting library             : XviD 67\n\nAudio\nID                          : 1\nFormat                      : MPEG Audio\nFormat version              : Version 1\nFormat profile              : Layer 3\nMode                        : Joint stereo\nMode extension              : MS Stereo\nCodec ID                    : 55\nCodec ID/Hint               : MP3\nDuration                    : 1h 59mn\nBit rate mode               : Constant\nBit rate                    : 192 Kbps\nChannel(s)                  : 2 channels\nSampling rate               : 48.0 KHz\nCompression mode            : Lossy\nStream size                 : 164 MiB (13%)\nAlignment                   : Aligned on interleaves\nInterleave, duration        : 33 ms (1.00 video frame)\nInterleave, preload duratio : 504 ms\n\n\n\n\n\nE N C O D E R S . N O T E S . . .       \n\nSOURCE......: ViDEO...unknown\n............: AUDiO...unknown\nSAMPLE......: Yippers \nADDED NOTE..: this is DVDSCRCAMWEBRIPHD SUNTIN unknown as sors. Who cares the label just watch it or move on... step down next fckn case.... rip had all green taking out so added it back with a few more filters.cropped blacks and resized.... audio is cam, lacked life and punch. added into aa and did some work on audio. muxed back over vid and boom still hollow and cam sounding after all that work LOL!!!!... re-ncode and did things that were wrong. thanks much to unknown for getting this to us lovely movie for all us waiting with eng audio. \n\n\n\n\nS C R E E N . S H O T S . . .\n\n[img]http://i.imgur.com/MTWHEt0.png[/img]\n\n[img]http://i.imgur.com/9hDTAjN.png[/img]\n\n[img]http://i.imgur.com/5yov0VZ.png[/img]\n\n[img]http://i.imgur.com/zTkLVsw.png[/img]\n\n[img]http://i.imgur.com/wspIpHo.png[/img]\n\n[img]http://i.imgur.com/uTicoNM.png[/img]\n\n[img]http://i.imgur.com/QtkR9zr.png[/img]\n\n\n\n\n\ngot any funny stories, jokes, nakid pix of ya sisters/gf's or just want to reach out to us giz us some treats send to...    ;) \n\n***DISCLAiMER*** as you can see there were no special friend that passed us some special vobs. what you see here is work put into a source. sum may like others may just hate...VAiN stands behind it's QUALiTY and don't claim to be professional HDTSCAMBDBRiPDVDRiPSCRHQ ENCODERS. just a cpl of fella's nipping at ya mumsknickers..... \n\n\nGREETZ:\n\nHive-CM8 | Rx | REFiLL | JEDI | TW34K | 26k | Unevano | EsX | TOFFEE\nGH0ST | ViSiON | Sugarb | Adam007 | STARLETS | GUSH | A.C.A.B. | jamie111 | TED |\n\n\nCheer's to our wives n girlfriends... may they neva meet :shifty","torrent":{"xt":"urn:btih:dff27bb667a4bbf2e287e16716e66e5e500541d7","amp;dn":"Legend.2015.DVDSCRCAMHDRIP.CAMAUDIO.READNFO.XviD-VAiN","amp;tr":["udp%3A%2F%2Ftracker.leechers-paradise.org%3A6969","udp%3A%2F%2Fzer0day.ch%3A1337","udp%3A%2F%2Fopen.demonii.com%3A1337","udp%3A%2F%2Ftracker.coppersurfer.tk%3A6969","udp%3A%2F%2Fexodus.desync.com%3A6969"],"infoHash":"dff27bb667a4bbf2e287e16716e66e5e500541d7","infoHashBuffer":{"type":"Buffer","data":[223,242,123,182,103,164,187,242,226,135,225,103,22,230,110,94,80,5,65,215]},"announce":[],"urlList":[]}}